<svg viewBox="0 0 47 47" id="call" xmlns="http://www.w3.org/2000/svg">
<g clip-path="url(#clip0)">
<path d="M29.6172 20.3647C29.0551 19.8026 28.1428 19.8023 27.5804 20.3647L24.8856 23.0596C23.2387 22.3676 20.49 19.625 19.7937 17.9676L22.4885 15.2728C23.0509 14.7104 23.0509 13.7984 22.4885 13.236L16.8873 7.63481C16.3253 7.07276 15.4129 7.0724 14.8505 7.63481L11.7955 10.69C10.2804 12.2049 10.0951 14.7266 11.2736 17.7904C14.6688 26.6181 27.3928 35.8283 32.1634 31.0579L35.2185 28.0027C35.7809 27.4403 35.7809 26.5284 35.2185 25.9659L29.6172 20.3647ZM30.1264 29.0211C29.4937 29.6536 27.9496 29.6041 26.0968 28.8913C21.3093 27.0501 15.8087 21.5579 13.9618 16.7564C13.2491 14.9035 13.1994 13.3594 13.832 12.7267L15.8688 10.69L19.4332 14.2544L17.3965 16.2911C16.8535 16.834 16.4271 17.8789 17.4796 19.7731C19.0237 22.5525 24.2998 27.7188 26.562 25.4567L28.5988 23.42L32.1632 26.9844L30.1264 29.0211Z" fill="#2DAAE1"/>
<path d="M34.595 0.661865H11.5514C7.18362 0.661865 3.63013 4.21536 3.63013 8.58312V31.6268C3.63013 35.9945 7.18362 39.548 11.5514 39.548H17.9371L21.8382 46.0499C22.3954 46.9785 23.7476 46.9841 24.3081 46.0499L28.2093 39.548H34.595C38.9628 39.548 42.5163 35.9945 42.5163 31.6268V8.58312C42.5163 4.21536 38.9629 0.661865 34.595 0.661865ZM39.6358 31.6268C39.6358 34.4063 37.3745 36.6676 34.595 36.6676H27.3939C26.888 36.6676 26.4192 36.933 26.1589 37.3669L23.0732 42.5097L19.9875 37.3669C19.7272 36.9331 19.2584 36.6676 18.7525 36.6676H11.5514C8.77192 36.6676 6.51058 34.4063 6.51058 31.6268V8.58312C6.51058 5.80357 8.77192 3.54232 11.5514 3.54232H34.595C37.3745 3.54232 39.6358 5.80357 39.6358 8.58312V31.6268Z" fill="#2DAAE1"/>
</g>
<defs>
<clipPath id="clip0">
<rect width="46.0866" height="46.0866" fill="white" transform="translate(0.0299683 0.661865)"/>
</clipPath>
</defs>
</svg>
