<svg viewBox="0 0 37 36" fill="none" id="down-arrow" xmlns="http://www.w3.org/2000/svg">
<path d="M18.5 36C28.7015 36 37 27.9258 37 18C37 8.07419 28.7015 0 18.5 0C8.29848 0 0 8.0756 0 18C0 27.9244 8.29848 36 18.5 36ZM18.5 2.78852C27.1195 2.78852 34.134 9.61207 34.134 18C34.134 26.3879 27.1195 33.2115 18.5 33.2115C9.87907 33.2115 2.86598 26.3879 2.86598 18C2.86598 9.61207 9.88052 2.78852 18.5 2.78852Z" fill="#2DAAE2"/>
<path d="M10.3176 16.0759L17.4826 23.0473C18.0415 23.5882 18.9442 23.5882 19.5031 23.0473L26.6681 16.0759C27.1281 15.5545 27.1281 14.7834 26.6681 14.262C26.1537 13.6778 25.248 13.6095 24.6476 14.1101L18.5 20.0914L12.3381 14.11C11.7792 13.569 10.8765 13.569 10.3176 14.11C9.76157 14.6538 9.76157 15.5322 10.3176 16.0759Z" fill="#2DAAE2"/>
</svg>
