<svg viewBox="0 0 63 69" fill="none" id="download" xmlns="http://www.w3.org/2000/svg">
<path d="M47.3959 30.0092V17.0881C47.3959 16.7182 47.225 16.3765 46.9833 16.1062L32.4969 0.894105C32.2265 0.609689 31.8421 0.452896 31.4582 0.452896H8.49029C4.2501 0.452896 0.863159 3.91068 0.863159 8.15139V51.5821C0.863159 55.8228 4.2501 59.2238 8.49029 59.2238H26.62C30.0491 64.9158 36.2823 68.7293 43.3828 68.7293C54.1692 68.7293 62.9778 59.9635 62.9778 49.163C62.9924 39.7283 56.2185 31.8449 47.3959 30.0092ZM32.8813 5.44788L42.6004 15.679H36.2964C34.418 15.679 32.8813 14.1283 32.8813 12.2499V5.44788ZM8.49029 56.3776C5.82949 56.3776 3.7094 54.2429 3.7094 51.5821V8.15139C3.7094 5.47601 5.82949 3.29914 8.49029 3.29914H30.035V12.2499C30.035 15.7077 32.8386 18.5253 36.2964 18.5253H44.5496V29.6388C44.123 29.6248 43.7813 29.5821 43.4114 29.5821C38.4451 29.5821 33.8773 31.4891 30.4335 34.4776H12.3612C11.5782 34.4776 10.938 35.1178 10.938 35.9002C10.938 36.6831 11.5782 37.3233 12.3612 37.3233H27.7868C26.7762 38.7464 25.9365 40.1695 25.2823 41.7348H12.3612C11.5782 41.7348 10.938 42.375 10.938 43.158C10.938 43.9404 11.5782 44.5811 12.3612 44.5811H24.3571C24.0014 46.0042 23.8164 47.5836 23.8164 49.163C23.8164 51.7243 24.3144 54.2575 25.2109 56.3922H8.49029V56.3776ZM43.3974 65.8977C34.1763 65.8977 26.6767 58.3982 26.6767 49.1771C26.6767 39.9559 34.1617 32.4564 43.3974 32.4564C52.6325 32.4564 60.1175 39.9559 60.1175 49.1771C60.1175 58.3982 52.6185 65.8977 43.3974 65.8977Z" fill="white"/>
<path d="M12.3612 30.1941H26.7763C27.5592 30.1941 28.1994 29.5534 28.1994 28.771C28.1994 27.9881 27.5592 27.3479 26.7763 27.3479H12.3612C11.5782 27.3479 10.938 27.9881 10.938 28.771C10.938 29.5534 11.5782 30.1941 12.3612 30.1941Z" fill="white"/>
<path d="M50.6828 48.8781L44.8346 55.1821V39.6429C44.8346 38.86 44.1939 38.2198 43.4115 38.2198C42.6285 38.2198 41.9883 38.86 41.9883 39.6429V55.1821L36.0969 48.8781C35.5562 48.3092 34.6456 48.2665 34.0763 48.8072C33.5069 49.3479 33.4642 50.2444 34.0054 50.8137L42.3301 59.7645C42.6004 60.0489 42.9703 60.2198 43.3687 60.2198C43.7672 60.2198 44.1371 60.0489 44.4074 59.7645L52.7467 50.8137C53.2874 50.2444 53.2587 49.3338 52.6894 48.8072C52.1059 48.2665 51.224 48.3092 50.6828 48.8781Z" fill="white"/>
</svg>
