<svg viewBox="0 0 66 67" fill="none" id="order" xmlns="http://www.w3.org/2000/svg">
<g clip-path="url(#clip0)">
<path d="M58.9504 54.9384L56.0156 17.9582C55.8327 15.5757 53.8178 13.7094 51.4284 13.7094H45.6317V13.4488C45.6317 6.44442 39.9333 0.745987 32.9289 0.745987C25.9245 0.745987 20.226 6.44442 20.226 13.4488V13.7094H14.4294C12.0399 13.7094 10.0249 15.5756 9.84263 17.9532L6.90697 54.9434C6.67979 57.9051 7.70725 60.8537 9.72571 63.0329C11.7442 65.212 14.6055 66.4621 17.5759 66.4621H48.2817C51.252 66.4621 54.1134 65.2122 56.132 63.0329C58.1505 60.8536 59.1778 57.9051 58.9504 54.9384ZM24.0753 13.4488C24.0753 8.56697 28.0471 4.59525 32.9289 4.59525C37.8106 4.59525 41.7824 8.5671 41.7824 13.4488V13.7094H24.0753V13.4488ZM53.3079 60.4173C51.9964 61.833 50.2115 62.6128 48.2817 62.6128H17.5761C15.6462 62.6128 13.8613 61.833 12.5498 60.4173C11.2385 59.0015 10.5975 57.1619 10.7448 55.2428L13.6802 18.2525C13.71 17.8634 14.0391 17.5586 14.4294 17.5586H20.226V22.2993C20.226 23.3622 21.0878 24.2239 22.1507 24.2239C23.2135 24.2239 24.0753 23.3622 24.0753 22.2993V17.5586H41.7824V22.2993C41.7824 23.3622 42.6442 24.2239 43.7071 24.2239C44.7699 24.2239 45.6317 23.3622 45.6317 22.2993V17.5586H51.4284C51.8186 17.5586 52.1477 17.8635 52.178 18.2576L55.1128 55.2377C55.2604 57.1619 54.6193 59.0014 53.3079 60.4173Z" fill="white"/>
<path d="M41.5772 33.3839C40.8259 32.6323 39.6072 32.6323 38.8557 33.3839L30.2618 41.9778L26.9572 38.6733C26.2057 37.9216 24.987 37.9216 24.2354 38.6733C23.4838 39.4249 23.4838 40.6435 24.2354 41.3951L28.9008 46.0605C29.2767 46.4364 29.7693 46.6244 30.2616 46.6244C30.754 46.6244 31.2467 46.4365 31.6224 46.0605L41.5771 36.1058C42.3289 35.3541 42.3289 34.1355 41.5772 33.3839Z" fill="white"/>
</g>
<defs>
<clipPath id="clip0">
<rect width="65.7161" height="65.7161" fill="white" transform="translate(0.0482788 0.745987)"/>
</clipPath>
</defs>
</svg>
