<svg viewBox="0 0 22 19" id="twitter" xmlns="http://www.w3.org/2000/svg">
<path d="M21.2581 2.93929C20.4964 3.28734 19.6848 3.51804 18.8386 3.63005C19.7091 3.08864 20.3735 2.23785 20.6859 1.21237C19.8743 1.71645 18.9781 2.0725 18.0231 2.27119C17.2524 1.4164 16.154 0.886993 14.9558 0.886993C12.631 0.886993 10.7594 2.85261 10.7594 5.26229C10.7594 5.609 10.7875 5.94238 10.8566 6.25976C7.36559 6.0824 4.27651 4.33949 2.20133 1.68444C1.83904 2.3392 1.62653 3.08864 1.62653 3.89542C1.62653 5.41031 2.37544 6.75317 3.49176 7.53061C2.8171 7.51728 2.15524 7.31325 1.59452 6.99187C1.59452 7.0052 1.59452 7.02254 1.59452 7.03987C1.59452 9.16551 3.05009 10.9311 4.95885 11.3378C4.61704 11.4352 4.2445 11.4818 3.85789 11.4818C3.58905 11.4818 3.31765 11.4658 3.06289 11.4072C3.60697 13.1394 5.15087 14.4129 6.98666 14.4543C5.55797 15.6184 3.74395 16.3199 1.78015 16.3199C1.43578 16.3199 1.10549 16.3039 0.775208 16.2599C2.63531 17.5094 4.83979 18.2228 7.21709 18.2228C14.9443 18.2228 19.1689 11.5552 19.1689 5.77569C19.1689 5.58233 19.1625 5.39564 19.1535 5.21028C19.9869 4.59419 20.6872 3.82475 21.2581 2.93929Z" />
</svg>
