<svg viewBox="0 0 30 30" id="vk" xmlns="http://www.w3.org/2000/svg">
<g clip-path="url(#clip0)">
<path d="M28.7589 20.9979C28.6809 20.8673 28.1984 19.819 25.8769 17.6643C23.4465 15.408 23.7729 15.7744 26.7003 11.873C28.4832 9.49706 29.196 8.04607 28.9729 7.42578C28.7607 6.8345 27.4494 6.99048 27.4494 6.99048L23.0892 7.01587C23.0892 7.01587 22.7663 6.97235 22.5251 7.11563C22.2911 7.2571 22.1406 7.58357 22.1406 7.58357C22.1406 7.58357 21.4495 9.42269 20.5282 10.9861C18.5857 14.2853 17.8076 14.4594 17.4902 14.2545C16.752 13.7775 16.937 12.3355 16.937 11.3126C16.937 8.11499 17.4213 6.7819 15.992 6.4373C15.5168 6.32303 15.1686 6.24685 13.9552 6.23416C12.399 6.21783 11.0805 6.2396 10.335 6.60416C9.83806 6.8472 9.45537 7.3895 9.68934 7.42034C9.97772 7.45843 10.6307 7.59627 10.9771 8.06784C11.4251 8.67544 11.4087 10.043 11.4087 10.043C11.4087 10.043 11.6663 13.8065 10.8084 14.2744C10.2189 14.5954 9.41184 13.9407 7.67973 10.9462C6.79281 9.41362 6.12174 7.71779 6.12174 7.71779C6.12174 7.71779 5.99296 7.4022 5.76262 7.23352C5.4833 7.02857 5.09154 6.96328 5.09154 6.96328L0.945357 6.98867C0.945357 6.98867 0.323248 7.00681 0.0947187 7.27705C-0.108419 7.51828 0.0783952 8.01524 0.0783952 8.01524C0.0783952 8.01524 3.32497 15.6093 6.99958 19.4381C10.3713 22.9477 14.1983 22.7173 14.1983 22.7173H15.9322C15.9322 22.7173 16.4564 22.6593 16.723 22.3709C16.9696 22.1061 16.9606 21.6091 16.9606 21.6091C16.9606 21.6091 16.9261 19.2821 18.0071 18.9393C19.0717 18.602 20.4393 21.1883 21.8885 22.1841C22.984 22.9368 23.8165 22.7717 23.8165 22.7717L27.6924 22.7173C27.6924 22.7173 29.7201 22.5922 28.7589 20.9979Z" />
</g>
<defs>
<clipPath id="clip0">
<rect width="29.0175" height="29.0175"/>
</clipPath>
</defs>
</svg>
